# xmcd
#
# Track frame offsets:
#	150
#	13397
#	28029
#	41662
#	53897
#	67766
#	81894
#	92794
#	105453
#	116078
#	127942
#	139346
#	152324
#	166896
#	180477
#	194725
#	209062
#
# Disc length: 2963 seconds
#
# Revision: 0
# Processed by: cddbd v1.5.1PL2 Copyright (c) Steve Scherf et al.
# Submitted via: audiograbber 1.83.01
#
DISCID=ea0b9111
DTITLE=Garner, Erroll - Documents - Portrait  CD8
DYEAR=2003
DGENRE=Jazz
TTITLE0=Take The 'A' Train
TTITLE1=Someone To Watch Over Me
TTITLE2=Tenderly
TTITLE3=Georgia On My Mind
TTITLE4=St. Louis Blues
TTITLE5=My Old Kentucky Home
TTITLE6=Erroll's Peril
TTITLE7=I'm Coming Virginia
TTITLE8=This Can't Be Love
TTITLE9=Moonglow
TTITLE10=She's Funny That Way
TTITLE11=Turquoise
TTITLE12=Impressions
TTITLE13=Blue And Sentimental
TTITLE14=I Can't Give You Anything But Love
TTITLE15=The Way You Look Tonight
TTITLE16=Confessin'
EXTD=
EXTT0=
EXTT1=
EXTT2=
EXTT3=
EXTT4=
EXTT5=
EXTT6=
EXTT7=
EXTT8=
EXTT9=
EXTT10=
EXTT11=
EXTT12=
EXTT13=
EXTT14=
EXTT15=
EXTT16=
PLAYORDER=
